<svg width="303" height="223" viewBox="0 0 303 223" fill="none" xmlns="http://www.w3.org/2000/svg">
<path d="M254.963 147.284C271.061 171.932 286.968 196.273 302.76 220.439C300.888 222.714 299.105 222.158 297.547 222.159C259.391 222.189 221.234 222.327 183.078 222.098C168.315 222.009 154.984 216.934 143.348 207.874C130.142 197.592 128.103 184.575 137.227 170.497C142.999 161.591 150.765 154.502 158.602 147.508C172.92 134.729 186.892 121.648 197.323 105.301C206.093 91.5587 211.284 76.6524 212.299 60.3206C212.436 58.1041 211.903 55.6371 213.742 53.5908C215.445 55.1387 215.403 57.1742 215.677 59.0652C218.028 75.2618 217.066 91.282 212.716 107.043C211.746 110.556 212.059 113.351 214.151 116.377C218.033 121.99 221.588 127.832 225.207 133.624C227.135 136.708 228.942 137.081 231.187 133.896C233.563 130.523 236.135 127.289 239.334 123.05C244.765 131.468 249.768 139.223 254.963 147.284Z" fill="black"/>
<path d="M202.921 75.1547C194.083 95.8106 178.711 110.107 160.479 121.512C145.517 130.872 129.939 139.243 114.908 148.497C104.394 154.969 94.7194 162.611 86.6752 172.158C75.0321 185.976 70.1081 201.202 76.2828 218.947C76.5421 219.693 76.4945 220.545 76.6394 221.764C51.4041 221.764 26.4161 221.764 0 221.764C28.9959 177.813 57.3571 134.824 86.0385 91.3502C92.422 96.9741 95.7368 104.526 101.496 109.904C104.017 109.467 104.596 107.288 105.622 105.727C121.632 81.3644 137.568 56.953 153.537 32.5638C157.717 26.1798 158.214 26.1911 162.457 32.7637C170.861 45.7808 179.228 58.8227 187.635 71.838C188.607 73.3432 189.376 75.0626 191.526 76.2328C198.669 70.2394 203.478 62.3831 208.587 54.5887C208.154 61.7947 205.729 68.3319 202.921 75.1547Z" fill="black"/>
<path d="M232.129 18.4233C233.488 18.5581 234.449 18.6833 236.023 18.8887C233.621 22.8133 229.847 24.3974 226.739 26.5515C222.949 29.1782 221.94 32.0305 223.628 36.3037C224.999 39.7725 225.841 43.4499 227.163 47.8551C222.213 46.0674 219.131 43.2505 215.929 40.8035C212.866 38.4634 210.511 38.5406 207.55 40.8698C204.46 43.3003 201.498 46.0166 197.293 47.8676C196.76 43.4166 198.659 39.8575 199.994 36.3716C201.655 32.0327 200.891 29.1985 196.889 26.7761C193.677 24.8322 190.516 22.6681 187.737 19.3436C192.02 17.5415 196.169 18.4256 200.139 18.478C203.998 18.529 205.942 17.0358 206.922 13.4375C208.069 9.22449 209.538 5.09918 211.167 0C214.379 4.55403 215.128 8.69301 216.269 12.5757C217.378 16.3519 219.161 18.2292 223.272 17.9612C226.07 17.7787 228.91 18.2403 232.129 18.4233Z" fill="black"/>
</svg>
